<?xml version="1.0" encoding="UTF-8"?>
<svg version="1.1" xmlns="http://www.w3.org/2000/svg" width="2100" height="1500">
<path d="M0 0 C693 0 1386 0 2100 0 C2100 495 2100 990 2100 1500 C1407 1500 714 1500 0 1500 C0 1005 0 510 0 0 Z " fill="#FEFEFE" transform="translate(0,0)"/>
<path d="M0 0 C-0.18062988 0.58676514 -0.36125977 1.17353027 -0.54736328 1.77807617 C-3.90524043 12.70337387 -7.225653 23.63751747 -10.375 34.625 C-10.75035889 35.92860474 -10.75035889 35.92860474 -11.13330078 37.25854492 C-11.3651709 38.07299072 -11.59704102 38.88743652 -11.8359375 39.7265625 C-12.03751465 40.43377441 -12.2390918 41.14098633 -12.44677734 41.86962891 C-13.06007644 44.23134467 -13.54152022 46.60385367 -14 49 C-14.7125293 49.09216797 -15.42505859 49.18433594 -16.15917969 49.27929688 C-24.25413817 50.46008498 -31.5896791 52.67149068 -39.25 55.5 C-40.46872803 55.94359863 -41.68745605 56.38719727 -42.94311523 56.84423828 C-54.78954552 61.1857227 -66.43048475 65.97220486 -78 71 C-79.02818848 71.44537109 -80.05637695 71.89074219 -81.11572266 72.34960938 C-116.88293015 87.90009235 -152.25914247 104.6232249 -186.36865234 123.54980469 C-189.00331611 125.00182758 -191.64947038 126.43019099 -194.30078125 127.8515625 C-208.00603153 135.21259815 -221.4143112 143.03745933 -234.74707031 151.04785156 C-237.75080774 152.85045472 -240.76128841 154.64119135 -243.7734375 156.4296875 C-286.18132245 181.76049684 -330.7425942 210.58320661 -365.234375 246.234375 C-366.95842251 247.95842251 -368.75144505 249.50382824 -370.625 251.0625 C-381.76288851 260.69053722 -391.20875452 272.24601451 -400 284 C-400.4223291 284.55478027 -400.8446582 285.10956055 -401.27978516 285.68115234 C-420.27773239 310.70764526 -431.2152311 337.21624944 -429 369 C-428.41753586 373.21722096 -427.4637307 377.0085416 -426 381 C-425.64808594 381.98871094 -425.29617188 382.97742188 -424.93359375 383.99609375 C-409.95366695 422.80547507 -368.11176123 446.63226078 -332.03515625 462.703125 C-312.2914844 471.24132202 -291.91671653 478.00250006 -271 483 C-270.17902832 483.20189941 -269.35805664 483.40379883 -268.51220703 483.61181641 C-222.00932783 494.94385705 -173.09220794 498.42774868 -125.37110519 498.25754547 C-123.02703389 498.24988408 -120.68297905 498.24583378 -118.33889771 498.24261475 C-95.51207851 498.20559807 -72.76185461 497.85594621 -50 496 C-49.02482422 495.92523437 -48.04964844 495.85046875 -47.04492188 495.7734375 C-41.78517449 495.36506028 -36.53828431 494.87133826 -31.29052734 494.33154297 C-28.03076466 494.00309975 -24.76973609 493.69260484 -21.50788879 493.38575745 C15.27715019 489.92015874 51.60516757 485.01244421 87.95245361 478.37237549 C90.80921617 477.85283251 93.66814923 477.34581063 96.52734375 476.83984375 C107.93611039 474.812547 119.30013894 472.58036797 130.65625 470.27734375 C134.81877608 469.43398532 138.98475238 468.61417196 143.15625 467.81640625 C155.8482833 465.37001608 168.37237281 462.51972254 180.8762207 459.23486328 C181.99472412 458.94466309 183.11322754 458.65446289 184.265625 458.35546875 C185.25336914 458.09403076 186.24111328 457.83259277 187.25878906 457.56323242 C189.9252313 457.01536261 192.28725008 456.8926899 195 457 C195.33 454.69 195.66 452.38 196 450 C196.70382812 449.9906543 197.40765625 449.98130859 198.1328125 449.97167969 C211.99132047 449.74100609 224.75155063 449.28195003 238 445 C240.10535358 444.34598332 242.21083487 443.69237767 244.31640625 443.0390625 C251.77306545 440.6968549 259.19495478 438.25487044 266.61236572 435.79156494 C269.0977533 434.96759215 271.58466165 434.14833053 274.07177734 433.32958984 C332.30872291 414.12360912 389.81645109 390.68258836 443.31298828 360.50976562 C446.25029257 358.85936678 449.20039557 357.23342712 452.15234375 355.609375 C465.69395882 348.1338571 478.94901199 340.30125769 492 332 C492.72558105 331.54061035 493.45116211 331.0812207 494.19873047 330.60791016 C517.52340883 315.81204267 540.24337105 300.02104429 562 283 C563.15083467 282.10780585 564.30188232 281.21588637 565.453125 280.32421875 C571.8624753 275.34319752 578.15469893 270.25281504 584.32299805 264.97583008 C587.60461903 262.16892466 590.9350316 259.44189273 594.3125 256.75 C600.57606358 251.65856528 606.37982938 246.09620734 612.234375 240.546875 C615.04383125 237.88688736 617.8992697 235.29652998 620.8125 232.75 C625.95134342 228.16362609 630.8108602 223.29882635 635.6875 218.4375 C636.49614502 217.63344727 637.30479004 216.82939453 638.13793945 216.00097656 C642.96423386 211.16227268 647.57664038 206.20889771 652 201 C652.51892822 200.39212646 653.03785645 199.78425293 653.57250977 199.15795898 C655.03229705 197.44262084 656.48608565 195.72242533 657.9375 194 C658.43056641 193.41605469 658.92363281 192.83210937 659.43164062 192.23046875 C660.62172946 190.82084896 661.81096106 189.41050551 663 188 C663 191.18528419 662.65170755 191.94807444 661.05078125 194.5625 C660.40689453 195.61981323 660.40689453 195.61981323 659.75 196.69848633 C659.0384375 197.8377356 659.0384375 197.8377356 658.3125 199 C657.82136719 199.79237061 657.33023437 200.58474121 656.82421875 201.40112305 C648.80840975 214.21659909 640.52447377 226.73863095 630.53125 238.10546875 C628.18787277 240.78516401 625.96326181 243.52527664 623.75 246.3125 C614.73411571 257.35496359 604.6118195 267.46942893 594.5625 277.5625 C593.82974854 278.29992432 593.09699707 279.03734863 592.34204102 279.79711914 C588.27700838 283.85015372 584.1149427 287.72724256 579.76635742 291.47436523 C577.5917144 293.35264364 575.48574652 295.30043776 573.375 297.25 C568.93141222 301.26006702 564.31391416 304.97220112 559.58642578 308.63623047 C555.78520871 311.58483811 552.04349734 314.59233361 548.33538818 317.65716553 C542.24642454 322.67293753 536.0696011 327.5113358 529.6640625 332.1171875 C528.88988983 332.67464661 528.11571716 333.23210571 527.31808472 333.80645752 C518.70995928 339.97107061 509.94175916 345.88914473 501.125 351.75 C499.86257477 352.59056946 499.86257477 352.59056946 498.574646 353.44812012 C475.64128943 368.69812418 452.15874989 382.76534075 428 396 C427.02047363 396.54124512 426.04094727 397.08249023 425.03173828 397.64013672 C392.82012165 415.42468316 359.78126677 431.43588675 326 446 C324.22278564 446.76884521 324.22278564 446.76884521 322.40966797 447.55322266 C317.92434644 449.49209013 313.43598962 451.42291129 308.93727112 453.33049011 C308.19867135 453.6437131 307.46007158 453.95693609 306.69909 454.27965069 C306.1383903 454.51736596 305.5776906 454.75508123 305 455 C304.17519272 469.217939 303.80279834 483.40057058 303.68359375 497.640625 C303.66289864 499.78066288 303.64190029 501.92069784 303.62062073 504.06072998 C303.57703233 508.52826048 303.53609836 512.99580416 303.49731445 517.46337891 C303.44867383 523.05855824 303.39491387 528.65367259 303.33934593 534.24878693 C303.07006943 561.49981401 302.933627 588.74768239 303 616 C313.05536651 592.59693376 323.06029689 569.17423962 332.95361328 545.70214844 C338.52001467 532.49676605 344.11376459 519.30330172 349.728302 506.11831665 C353.70185496 496.78608069 357.6584777 487.44713179 361.58203125 478.09375 C361.95527023 477.20453354 362.32850922 476.31531708 362.71305847 475.39915466 C364.50817794 471.12170716 366.30062176 466.84317198 368.08862305 462.56274414 C368.72565939 461.04309407 369.3627802 459.5234794 370 458.00390625 C370.43618401 456.95553589 370.43618401 456.95553589 370.88117981 455.88598633 C372.88654701 451.11345299 372.88654701 451.11345299 374 450 C375.39143689 449.90456905 376.78768367 449.87811425 378.18238831 449.87974548 C379.08407745 449.87837082 379.9857666 449.87699615 380.91477966 449.87557983 C381.91171341 449.87917511 382.90864716 449.88277039 383.93579102 449.88647461 C384.97956909 449.88632858 386.02334717 449.88618256 387.09875488 449.8860321 C390.56715943 449.88673174 394.03551103 449.89452647 397.50390625 449.90234375 C399.90144318 449.90420775 402.2989805 449.90563174 404.69651794 449.90663147 C411.02095584 449.91045806 417.34537094 449.92028954 423.6697998 449.93133545 C430.11775402 449.94154655 436.56571191 449.94612844 443.01367188 449.95117188 C455.675791 449.96191168 468.33789429 449.97879881 481 450 C479.97992304 458.48930478 479.97992304 458.48930478 479.13964844 462.58227539 C478.97547424 463.38925873 478.81130005 464.19624207 478.64215088 465.02767944 C478.46633484 465.87577179 478.2905188 466.72386414 478.109375 467.59765625 C477.92469666 468.50021149 477.74001831 469.40276672 477.54974365 470.33267212 C476.95310674 473.24329948 476.35180747 476.15293768 475.75 479.0625 C475.33390121 481.08372312 474.91788594 483.10496343 474.50195312 485.1262207 C471.75788019 498.43784633 468.94577068 511.73149264 466 525 C464.51668501 531.68658572 463.03759929 538.37409702 461.5625 545.0625 C461.26767227 546.39831116 461.26767227 546.39831116 460.96688843 547.7611084 C458.19448231 560.3400007 455.57436266 572.93618111 453.10009766 585.57714844 C451.31680304 594.61399699 449.28826003 603.57740524 447.17675781 612.54248047 C445.50337455 619.6920925 443.9780032 626.85756556 442.5625 634.0625 C440.67623288 643.6614361 438.71746686 653.2429788 436.6875 662.8125 C436.5436084 663.49086914 436.3997168 664.16923828 436.25146484 664.86816406 C432.62335424 681.93925177 428.8071455 698.96803328 425 716 C400.91 715.67 376.82 715.34 352 715 C353.32 709.06 354.64 703.12 356 697 C356.68729008 693.80961095 357.37128096 690.61936804 358.04296875 687.42578125 C358.39324726 685.7721689 358.74376141 684.11860645 359.09448242 682.46508789 C359.27240326 681.62575714 359.4503241 680.78642639 359.63363647 679.92166138 C363.16674922 663.27773939 366.8512626 646.67562282 370.72924805 630.10864258 C373.60399846 617.81887326 376.34746442 605.50169524 379.07449341 593.17837524 C380.68649826 585.89725519 382.30634324 578.61787365 383.92466545 571.33815575 C384.92527811 566.83681878 385.92550988 562.33539719 386.92578125 557.83398438 C387.33154115 556.00805624 387.73730287 554.1821285 388.14306641 552.35620117 C388.34536865 551.44584106 388.5476709 550.53548096 388.75610352 549.59753418 C391.83740234 535.73168945 394.91870117 521.86584473 398 508 C395.78293695 510.21706305 394.85735185 513.82810568 393.6328125 516.703125 C393.28669418 517.51076797 392.94057587 518.31841095 392.58396912 519.15052795 C391.42841653 521.84926357 390.27660156 524.54957626 389.125 527.25 C388.31119609 529.15392398 387.49731127 531.05781338 386.68334961 532.96166992 C378.92938096 551.11303785 371.25168053 569.29659058 363.58789062 587.48617554 C359.23116902 597.82661252 354.86555783 608.1632912 350.5 618.5 C348.9256921 622.22782694 347.35147485 625.95569215 345.77734375 629.68359375 C345.38690887 630.60822418 344.996474 631.53285461 344.59420776 632.48550415 C342.14736258 638.28076299 339.70219329 644.0767263 337.25811768 649.87315369 C321.90685465 686.28038956 321.90685465 686.28038956 314.875 702.6875 C314.13842163 704.40658569 314.13842163 704.40658569 313.38696289 706.16040039 C310.13633009 713.72733982 310.13633009 713.72733982 309 716 C288.87 716 268.74 716 248 716 C247.89909802 677.96625976 248.23551813 639.98068012 248.92712402 601.95397949 C249.14556174 589.93688498 249.35573424 577.91964424 249.5625 565.90234375 C249.58431335 564.64379955 249.60612671 563.38525536 249.62860107 562.08857346 C249.93822595 544.05750065 250.15874767 526.03388772 250 508 C249.82460693 508.85190918 249.64921387 509.70381836 249.46850586 510.58154297 C235.12500007 580.24999964 235.12500007 580.24999964 234.68751526 582.37492371 C234.39579658 583.79184445 234.10407905 585.20876543 233.81236267 586.62568665 C233.08400118 590.16346788 232.35561984 593.70124502 231.62719727 597.23901367 C230.30506553 603.66038046 228.98308774 610.08177876 227.66183472 616.50332642 C224.54216467 631.66547234 221.41840169 646.82673409 218.27807617 661.98461914 C216.89347505 668.670925 215.51429949 675.35831757 214.140625 682.046875 C213.90430359 683.19700073 213.90430359 683.19700073 213.66320801 684.37036133 C212.89440916 688.11196742 212.12626513 691.85370535 211.359375 695.59570312 C211.07815785 696.9648505 210.79690935 698.33399143 210.515625 699.703125 C210.14872559 701.49218262 210.14872559 701.49218262 209.77441406 703.31738281 C208.88386365 707.55227008 207.93876891 711.7755399 207 716 C184.89 716 162.78 716 140 716 C140.62619653 709.73803465 141.2190569 704.34839881 142.6015625 698.34375 C142.75866699 697.65139755 142.91577148 696.9590451 143.07763672 696.24571228 C143.41398913 694.76480107 143.75284916 693.28445745 144.09405518 691.80465698 C145.01395337 687.81168126 145.9131764 683.81405799 146.8125 679.81640625 C146.99680573 678.99842056 147.18111145 678.18043488 147.3710022 677.33766174 C149.22755361 669.05885587 150.93779274 660.75218707 152.625 652.4375 C154.87912504 641.34795057 157.24230392 630.28993578 159.7331543 619.25073242 C161.90768296 609.55401448 163.89817845 599.82378671 165.87734985 590.08584595 C168.01452121 579.58753051 170.29141398 569.12963416 172.6875 558.6875 C174.8374878 549.31294243 176.84515436 539.94150574 178.57397461 530.48046875 C180.40151631 520.58533799 182.70266029 510.79489222 185 501 C184.37770508 501.1858667 183.75541016 501.3717334 183.11425781 501.56323242 C170.80095922 505.22898049 158.48429421 508.7413999 145.99609375 511.76171875 C136.97385689 513.96279586 128.01983311 516.4448862 119.0625 518.89453125 C103.70913119 523.07690764 88.31926659 526.84730207 72.77734375 530.26171875 C67.67592794 531.38516074 62.59369681 532.56969786 57.51564026 533.79421997 C46.21857451 536.51806568 34.88752468 538.99748431 23.5 541.3125 C22.56757477 541.50253601 21.63514954 541.69257202 20.67446899 541.8883667 C-28.43424713 551.86763381 -78.06168524 560.49215459 -128 565 C-128.96671631 565.08872375 -129.93343262 565.17744751 -130.92944336 565.26885986 C-159.80703261 567.89972947 -188.58129769 569.37784385 -217.5701828 569.37516785 C-219.64235555 569.37500358 -221.71451157 569.3777094 -223.78668213 569.38049316 C-248.3814849 569.39208807 -272.97875784 568.40300077 -297.375 565.125 C-298.71523595 564.94951331 -300.05548703 564.77414221 -301.39575195 564.59887695 C-305.26680755 564.0866658 -309.13374207 563.54732084 -313 563 C-314.07975098 562.84805176 -315.15950195 562.69610352 -316.27197266 562.53955078 C-340.68004223 559.01484949 -364.72041478 553.13484085 -388 545 C-388.84900879 544.70544922 -389.69801758 544.41089844 -390.57275391 544.10742188 C-426.296807 531.5460119 -461.64658889 512.67475205 -488 485 C-488.804375 484.195625 -489.60875 483.39125 -490.4375 482.5625 C-491.283125 481.716875 -492.12875 480.87125 -493 480 C-493.53753906 479.50886719 -494.07507813 479.01773437 -494.62890625 478.51171875 C-517.21007499 457.25053482 -531.80022034 427.26432589 -541.28613281 398.17578125 C-541.89558362 396.31824856 -542.53462773 394.47046901 -543.1796875 392.625 C-546.63129347 382.350452 -548.24069517 371.66553159 -550 361 C-550.12149414 360.30616211 -550.24298828 359.61232422 -550.36816406 358.89746094 C-558.02517966 315.0353328 -544.03885136 272.08345594 -519.07641602 236.28100586 C-514.61924685 230.00033191 -509.92117732 223.92330797 -505 218 C-503.78183594 216.50339844 -503.78183594 216.50339844 -502.5390625 214.9765625 C-496.32444117 207.45483567 -489.64502201 200.46384771 -482.75 193.5625 C-481.91049805 192.72219238 -481.07099609 191.88188477 -480.20605469 191.01611328 C-475.29360603 186.14733514 -470.27412849 181.47378216 -465 177 C-464.04673828 176.18656128 -464.04673828 176.18656128 -463.07421875 175.35668945 C-440.08587779 155.8692138 -415.03555102 139.12982042 -389 124 C-388.32195312 123.60506348 -387.64390625 123.21012695 -386.9453125 122.80322266 C-337.78627712 94.31220541 -285.28902331 72.86488812 -231.625 54.5625 C-230.6435199 54.22720276 -229.66203979 53.89190552 -228.65081787 53.54644775 C-216.21203953 49.30797768 -203.72372538 45.31390089 -191.11254883 41.61947632 C-189.26364401 41.07731003 -187.41679947 40.5281278 -185.5703125 39.9777832 C-148.87069442 29.05342655 -111.63805656 20.09773707 -74.1317749 12.4362793 C-71.08274209 11.81227819 -68.03572372 11.17859052 -64.98828125 10.546875 C-53.16829615 8.12085811 -41.3063264 5.92179114 -29.4375 3.75 C-28.72286591 3.61880768 -28.00823181 3.48761536 -27.27194214 3.35244751 C-7.88708362 -0.19717709 -7.88708362 -0.19717709 0 0 Z " fill="#D51C5B" transform="translate(686,502)"/>
<path d="M0 0 C0 3.18528419 -0.34829245 3.94807444 -1.94921875 6.5625 C-2.37847656 7.26737549 -2.80773438 7.97225098 -3.25 8.69848633 C-3.9615625 9.8377356 -3.9615625 9.8377356 -4.6875 11 C-5.17863281 11.79237061 -5.66976562 12.58474121 -6.17578125 13.40112305 C-14.19159025 26.21659909 -22.47552623 38.73863095 -32.46875 50.10546875 C-34.81212723 52.78516401 -37.03673819 55.52527664 -39.25 58.3125 C-48.26588429 69.35496359 -58.3881805 79.46942893 -68.4375 89.5625 C-69.17025146 90.29992432 -69.90300293 91.03734863 -70.65795898 91.79711914 C-74.72299162 95.85015372 -78.8850573 99.72724256 -83.23364258 103.47436523 C-85.4082856 105.35264364 -87.51425348 107.30043776 -89.625 109.25 C-94.06858778 113.26006702 -98.68608584 116.97220112 -103.41357422 120.63623047 C-107.21479129 123.58483811 -110.95650266 126.59233361 -114.66461182 129.65716553 C-120.75357546 134.67293753 -126.9303989 139.5113358 -133.3359375 144.1171875 C-134.11011017 144.67464661 -134.88428284 145.23210571 -135.68191528 145.80645752 C-144.29004072 151.97107061 -153.05824084 157.88914473 -161.875 163.75 C-162.71661682 164.31037964 -163.55823364 164.87075928 -164.425354 165.44812012 C-187.35871057 180.69812418 -210.84125011 194.76534075 -235 208 C-235.97952637 208.54124512 -236.95905273 209.08249023 -237.96826172 209.64013672 C-270.17987835 227.42468316 -303.21873323 243.43588675 -337 258 C-338.77721436 258.76884521 -338.77721436 258.76884521 -340.59033203 259.55322266 C-345.07565356 261.49209013 -349.56401038 263.42291129 -354.06272888 265.33049011 C-355.17062853 265.8003246 -355.17062853 265.8003246 -356.30091 266.27965069 C-356.8616097 266.51736596 -357.4223094 266.75508123 -358 267 C-358.82480728 281.217939 -359.19720166 295.40057058 -359.31640625 309.640625 C-359.33710136 311.78066288 -359.35809971 313.92069784 -359.37937927 316.06072998 C-359.42296767 320.52826048 -359.46390164 324.99580416 -359.50268555 329.46337891 C-359.55132617 335.05855824 -359.60508613 340.65367259 -359.66065407 346.24878693 C-359.92993057 373.49981401 -360.066373 400.74768239 -360 428 C-349.94463349 404.59693376 -339.93970311 381.17423962 -330.04638672 357.70214844 C-324.47998533 344.49676605 -318.88623541 331.30330172 -313.271698 318.11831665 C-309.29814504 308.78608069 -305.3415223 299.44713179 -301.41796875 290.09375 C-301.04472977 289.20453354 -300.67149078 288.31531708 -300.28694153 287.39915466 C-298.49182206 283.12170716 -296.69937824 278.84317198 -294.91137695 274.56274414 C-294.27434061 273.04309407 -293.6372198 271.5234794 -293 270.00390625 C-292.70921066 269.30499268 -292.41842133 268.6060791 -292.11882019 267.88598633 C-290.11345299 263.11345299 -290.11345299 263.11345299 -289 262 C-287.60856311 261.90456905 -286.21231633 261.87811425 -284.81761169 261.87974548 C-283.46507797 261.87768349 -283.46507797 261.87768349 -282.08522034 261.87557983 C-281.08828659 261.87917511 -280.09135284 261.88277039 -279.06420898 261.88647461 C-278.02043091 261.88632858 -276.97665283 261.88618256 -275.90124512 261.8860321 C-272.43284057 261.88673174 -268.96448897 261.89452647 -265.49609375 261.90234375 C-263.09855682 261.90420775 -260.7010195 261.90563174 -258.30348206 261.90663147 C-251.97904416 261.91045806 -245.65462906 261.92028954 -239.3302002 261.93133545 C-232.88224598 261.94154655 -226.43428809 261.94612844 -219.98632812 261.95117188 C-207.324209 261.96191168 -194.66210571 261.97879881 -182 262 C-183.02007696 270.48930478 -183.02007696 270.48930478 -183.86035156 274.58227539 C-184.10661285 275.7927504 -184.10661285 275.7927504 -184.35784912 277.02767944 C-184.53366516 277.87577179 -184.7094812 278.72386414 -184.890625 279.59765625 C-185.07530334 280.50021149 -185.25998169 281.40276672 -185.45025635 282.33267212 C-186.04689326 285.24329948 -186.64819253 288.15293768 -187.25 291.0625 C-187.66609879 293.08372312 -188.08211406 295.10496343 -188.49804688 297.1262207 C-191.24211981 310.43784633 -194.05422932 323.73149264 -197 337 C-198.48331499 343.68658572 -199.96240071 350.37409702 -201.4375 357.0625 C-201.63405182 357.95304077 -201.83060364 358.84358154 -202.03311157 359.7611084 C-204.80551769 372.3400007 -207.42563734 384.93618111 -209.89990234 397.57714844 C-211.68319696 406.61399699 -213.71173997 415.57740524 -215.82324219 424.54248047 C-217.49662545 431.6920925 -219.0219968 438.85756556 -220.4375 446.0625 C-222.32376712 455.6614361 -224.28253314 465.2429788 -226.3125 474.8125 C-226.4563916 475.49086914 -226.6002832 476.16923828 -226.74853516 476.86816406 C-230.37664576 493.93925177 -234.1928545 510.96803328 -238 528 C-262.09 527.67 -286.18 527.34 -311 527 C-309.68 521.06 -308.36 515.12 -307 509 C-306.31270992 505.80961095 -305.62871904 502.61936804 -304.95703125 499.42578125 C-304.60675274 497.7721689 -304.25623859 496.11860645 -303.90551758 494.46508789 C-303.72759674 493.62575714 -303.5496759 492.78642639 -303.36636353 491.92166138 C-299.83325078 475.27773939 -296.1487374 458.67562282 -292.27075195 442.10864258 C-289.39600154 429.81887326 -286.65253558 417.50169524 -283.92550659 405.17837524 C-282.31350174 397.89725519 -280.69365676 390.61787365 -279.07533455 383.33815575 C-278.07472189 378.83681878 -277.07449012 374.33539719 -276.07421875 369.83398438 C-275.66845885 368.00805624 -275.26269713 366.1821285 -274.85693359 364.35620117 C-274.55348022 362.99066101 -274.55348022 362.99066101 -274.24389648 361.59753418 C-269.62194824 340.79876709 -269.62194824 340.79876709 -265 320 C-267.21706305 322.21706305 -268.14264815 325.82810568 -269.3671875 328.703125 C-269.71330582 329.51076797 -270.05942413 330.31841095 -270.41603088 331.15052795 C-271.57158347 333.84926357 -272.72339844 336.54957626 -273.875 339.25 C-274.68880391 341.15392398 -275.50268873 343.05781338 -276.31665039 344.96166992 C-284.07061904 363.11303785 -291.74831947 381.29659058 -299.41210938 399.48617554 C-303.76883098 409.82661252 -308.13444217 420.1632912 -312.5 430.5 C-314.0743079 434.22782694 -315.64852515 437.95569215 -317.22265625 441.68359375 C-317.61309113 442.60822418 -318.003526 443.53285461 -318.40579224 444.48550415 C-320.85263742 450.28076299 -323.29780671 456.0767263 -325.74188232 461.87315369 C-341.09314535 498.28038956 -341.09314535 498.28038956 -348.125 514.6875 C-348.61605225 515.83355713 -349.10710449 516.97961426 -349.61303711 518.16040039 C-352.86366991 525.72733982 -352.86366991 525.72733982 -354 528 C-374.13 528 -394.26 528 -415 528 C-415.10090198 489.96625976 -414.76448187 451.98068012 -414.07287598 413.95397949 C-413.85443826 401.93688498 -413.64426576 389.91964424 -413.4375 377.90234375 C-413.41568665 376.64379955 -413.39387329 375.38525536 -413.37139893 374.08857346 C-413.06177405 356.05750065 -412.84125233 338.03388772 -413 320 C-413.17539307 320.85190918 -413.35078613 321.70381836 -413.53149414 322.58154297 C-427.87499998 392.24999989 -427.87499998 392.24999989 -428.31248474 394.37492371 C-428.60420342 395.79184445 -428.89592095 397.20876543 -429.18763733 398.62568665 C-429.91599882 402.16346788 -430.64438016 405.70124502 -431.37280273 409.23901367 C-432.69493447 415.66038046 -434.01691226 422.08177876 -435.33816528 428.50332642 C-438.45783533 443.66547234 -441.58159831 458.82673409 -444.72192383 473.98461914 C-446.10652495 480.670925 -447.48570051 487.35831757 -448.859375 494.046875 C-449.01692261 494.81362549 -449.17447021 495.58037598 -449.33679199 496.37036133 C-450.10559084 500.11196742 -450.87373487 503.85370535 -451.640625 507.59570312 C-451.92184215 508.9648505 -452.20309065 510.33399143 -452.484375 511.703125 C-452.72897461 512.89583008 -452.97357422 514.08853516 -453.22558594 515.31738281 C-454.11613635 519.55227008 -455.06123109 523.7755399 -456 528 C-478.11 528 -500.22 528 -523 528 C-522.37380347 521.73803465 -521.7809431 516.34839881 -520.3984375 510.34375 C-520.24133301 509.65139755 -520.08422852 508.9590451 -519.92236328 508.24571228 C-519.58601087 506.76480107 -519.24715084 505.28445745 -518.90594482 503.80465698 C-517.98604663 499.81168126 -517.0868236 495.81405799 -516.1875 491.81640625 C-516.00319427 490.99842056 -515.81888855 490.18043488 -515.6289978 489.33766174 C-513.77244639 481.05885587 -512.06220726 472.75218707 -510.375 464.4375 C-508.12087496 453.34795057 -505.75769608 442.28993578 -503.2668457 431.25073242 C-501.09231704 421.55401448 -499.10182155 411.82378671 -497.12265015 402.08584595 C-494.98547999 391.58753642 -492.70878926 381.12958459 -490.3125 370.6875 C-488.13414158 361.1926727 -486.10037686 351.69971851 -484.35571289 342.11572266 C-483.20437081 335.85115997 -481.80924048 329.66821139 -480.21801758 323.50048828 C-479.23718749 319.57815817 -478.82514809 316.04032815 -479 312 C-478.34 312 -477.68 312 -477 312 C-476.89695557 311.26604004 -476.79391113 310.53208008 -476.68774414 309.77587891 C-475.40181146 300.99913523 -473.72404191 292.3390044 -471.91333008 283.65771484 C-471.43108573 281.34422863 -470.95446049 279.02963333 -470.47851562 276.71484375 C-470.17219825 275.23430808 -469.86556947 273.7538368 -469.55859375 272.2734375 C-469.41691269 271.58599457 -469.27523163 270.89855164 -469.1292572 270.1902771 C-468.54379382 267.39245275 -467.9050611 264.71518329 -467 262 C-466.29617188 261.9906543 -465.59234375 261.98130859 -464.8671875 261.97167969 C-451.00867953 261.74100609 -438.24844937 261.28195003 -425 257 C-422.89464642 256.34598332 -420.78916513 255.69237767 -418.68359375 255.0390625 C-411.22693455 252.6968549 -403.80504522 250.25487044 -396.38763428 247.79156494 C-393.9022467 246.96759215 -391.41533835 246.14833053 -388.92822266 245.32958984 C-330.69127709 226.12360912 -273.18354891 202.68258836 -219.68701172 172.50976562 C-216.74970743 170.85936678 -213.79960443 169.23342712 -210.84765625 167.609375 C-197.30604118 160.1338571 -184.05098801 152.30125769 -171 144 C-170.27441895 143.54061035 -169.54883789 143.0812207 -168.80126953 142.60791016 C-145.47659117 127.81204267 -122.75662895 112.02104429 -101 95 C-99.84916533 94.10780585 -98.69811768 93.21588637 -97.546875 92.32421875 C-91.1375247 87.34319752 -84.84530107 82.25281504 -78.67700195 76.97583008 C-75.39538097 74.16892466 -72.0649684 71.44189273 -68.6875 68.75 C-62.42393642 63.65856528 -56.62017062 58.09620734 -50.765625 52.546875 C-47.95616875 49.88688736 -45.1007303 47.29652998 -42.1875 44.75 C-37.04865658 40.16362609 -32.1891398 35.29882635 -27.3125 30.4375 C-26.09953247 29.2314209 -26.09953247 29.2314209 -24.86206055 28.00097656 C-20.03576614 23.16227268 -15.42335962 18.20889771 -11 13 C-10.48107178 12.39212646 -9.96214355 11.78425293 -9.42749023 11.15795898 C-7.96770295 9.44262084 -6.51391435 7.72242533 -5.0625 6 C-4.32290039 5.12408203 -4.32290039 5.12408203 -3.56835938 4.23046875 C-2.37827054 2.82084896 -1.18903894 1.41050551 0 0 Z " fill="#1E458E" transform="translate(1349,690)"/>
<path d="M0 0 C3.06342936 0.82075127 5.94846589 1.97217173 8.875 3.1875 C9.7306958 3.53772217 10.5863916 3.88794434 11.46801758 4.2487793 C40.39788992 16.42637551 67.3631115 33.20752915 90 55 C91.23943359 56.12728516 91.23943359 56.12728516 92.50390625 57.27734375 C100.60422126 64.88357855 106.71545005 73.89989175 113 83 C113.44875488 83.64098633 113.89750977 84.28197266 114.35986328 84.94238281 C126.16162866 101.82540077 136.25430607 119.49229638 143 139 C143.2371875 139.65145996 143.474375 140.30291992 143.71875 140.97412109 C148.33535842 153.98924706 148.49030291 169.37061629 147 183 C146.34 183.99 145.68 184.98 145 186 C144.67837891 185.12899658 144.35675781 184.25799316 144.02539062 183.3605957 C142.79873485 180.05925553 141.55964874 176.7631093 140.3125 173.46948242 C139.78028774 172.0565932 139.25276136 170.64192793 138.73046875 169.2253418 C132.23767602 150.58102536 132.23767602 150.58102536 119 137 C114.62871495 136.31901346 110.28349704 136.51656152 105.875 136.63867188 C98.73534343 136.61295265 95.21517313 134.76508704 90 130 C88.8289759 129.02345411 87.655874 128.04939314 86.48046875 127.078125 C85.38079645 126.13776918 84.28311373 125.19508138 83.1875 124.25 C77.7843304 119.60090598 74.26529928 116.82248671 67 116 C71.79056206 130.04249705 71.79056206 130.04249705 81 141 C84.68306632 141.5612879 88.34226119 141.56010756 92.0625 141.5625 C94.05348845 141.5714282 96.04447154 141.59300212 98.03515625 141.62890625 C98.9156665 141.62963135 99.79617676 141.63035645 100.70336914 141.63110352 C103.47582742 142.07642981 104.30099298 142.81003016 106 145 C109.17146531 151.50984985 109.22905871 159.29880419 106.97265625 166.09375 C101.06024987 178.80296705 92.01266281 187.48649792 79.0546875 192.51953125 C76.34325287 193.15357395 73.77342533 193.07463893 71 193 C70.55914063 192.08605469 70.11828125 191.17210937 69.6640625 190.23046875 C59.44155418 169.72494832 43.70534745 139.24114945 23 128 C22.01 127.67 21.02 127.34 20 127 C24.54571823 147.43408576 35.04385953 163.2500623 48.3359375 179.02001953 C50.51982549 181.61851301 52.66821913 184.24372576 54.8125 186.875 C57.00164288 189.55833372 59.19596874 192.23637139 61.40625 194.90234375 C65.18342693 199.47052039 68.86828302 203.96202051 72 209 C77.07979288 208.29245742 80.32316563 206.01210331 84.5 203.1796875 C87 202 87 202 89.6875 202.1328125 C92 203 92 203 94 206 C95.31331638 216.29463465 96.23113181 231.25080808 90 240 C84.43675903 246.27393551 77.77155543 251.40039706 71.25 256.625 C62.76924003 263.4886136 52.30441041 272.79700337 50.69091797 284.18066406 C49.89958213 293.88692365 50.5393195 302.23986841 55 311 C56.56255905 316.1255918 56.68672771 321.02060837 54.9375 326.0625 C50.93322264 332.13350116 45.3121205 336.63503887 39.86328125 341.375 C35.18865428 345.18804701 35.18865428 345.18804701 32.1875 350.25 C31.9000418 352.88442266 31.9000418 352.88442266 32.33984375 355 C32.67493983 357.64404577 32.7256596 359.4180019 32 362 C29.46219205 364.57330177 26.730626 366.60615735 23.8203125 368.74609375 C20.46662089 371.42626004 18.58994798 374.18258546 16.3828125 377.80859375 C8.1851478 390.79980814 -3.57253485 398.66278319 -18.3125 402.125 C-18.99441406 402.27155029 -19.67632813 402.41810059 -20.37890625 402.5690918 C-24.47476916 403.47463629 -27.45271068 404.81983237 -31 407 C-34.08996606 407.63492453 -36.90408266 407.6113315 -40 407 C-43.28175318 404.47031526 -44.69243777 402.92268669 -46 399 C-46.10269389 396.6465984 -46.18292858 394.29218609 -46.25 391.9375 C-46.84972734 380.95999622 -51.29834327 374.51803089 -58.32568359 366.4074707 C-64.56177446 359.16180538 -68.42467997 352.19341717 -68.31201172 342.54150391 C-67.72158098 337.73212679 -65.59813031 333.53985675 -63.5625 329.1875 C-62.72809097 327.3487334 -61.89596616 325.50892811 -61.06640625 323.66796875 C-60.69459229 322.86641357 -60.32277832 322.0648584 -59.93969727 321.23901367 C-57.88728106 316.34872814 -56.69873068 311.22029679 -58 306 C-60.57877496 301.9587134 -63.57909334 298.36333239 -66.64404297 294.68603516 C-72.30399009 287.64829752 -77.08110818 281.15602475 -77.17578125 271.94140625 C-77.19962891 270.75095703 -77.22347656 269.56050781 -77.24804688 268.33398438 C-77.29094593 265.82373975 -77.32223427 263.31326932 -77.34179688 260.80273438 C-77.36951172 259.61099609 -77.39722656 258.41925781 -77.42578125 257.19140625 C-77.44036377 256.10029541 -77.45494629 255.00918457 -77.4699707 253.88500977 C-78.12011022 250.3462264 -79.15108116 249.14221526 -82 247 C-85.80451441 246.64108355 -88.69126266 246.91423963 -92.375 247.9375 C-98.01372741 248.03471944 -100.84943707 244.5084869 -105 241 C-109.88043272 237.84805387 -114.29996066 237.04999344 -120 238 C-123.3669115 239.74348693 -123.3669115 239.74348693 -126 242 C-129.73064844 244.48709896 -131.57631968 244.29991053 -136 244 C-136.81984375 243.67 -137.6396875 243.34 -138.484375 243 C-144.5418288 241.27699092 -150.88079775 241.71651209 -157.14648438 241.78515625 C-163.46192678 241.68272237 -167.16944599 241.11387409 -171.66870117 236.52001953 C-172.10802979 236.01841309 -172.5473584 235.51680664 -173 235 C-173.88751953 234.10474609 -173.88751953 234.10474609 -174.79296875 233.19140625 C-176.54748368 231.14201486 -178.28318515 229.08127833 -180 227 C-180.47195801 226.42975098 -180.94391602 225.85950195 -181.43017578 225.27197266 C-183.04527862 223.31310297 -184.64919761 221.34556926 -186.25 219.375 C-186.76973389 218.74150635 -187.28946777 218.1080127 -187.82495117 217.45532227 C-188.32099854 216.83842529 -188.8170459 216.22152832 -189.328125 215.5859375 C-189.7705957 215.0398584 -190.21306641 214.4937793 -190.66894531 213.93115234 C-193.9377163 209.18867646 -195.38038383 205.40396967 -195.3984375 199.6328125 C-195.40447998 198.42439697 -195.41052246 197.21598145 -195.41674805 195.97094727 C-195.40297119 194.70178467 -195.38919434 193.43262207 -195.375 192.125 C-195.36702393 190.8268335 -195.35904785 189.52866699 -195.35083008 188.19116211 C-194.9475929 160.97010055 -194.9475929 160.97010055 -185.8125 151.49609375 C-182.13086147 147.97591363 -178.13901371 145.0166853 -174 142.0625 C-164.2228876 134.84175785 -158.83785185 128.76311132 -154.5546875 117.26953125 C-152.84832533 113.68102589 -150.9369397 111.64186256 -148 109 C-145.32820474 106.39033952 -143.07429779 104.11144669 -141 101 C-136.46860671 100.42152426 -132.98774743 101.21503933 -128.625 102.5 C-120.89324942 104.68048007 -115.81498285 105.25045016 -108.5625 101.375 C-105.79267276 99.75702025 -103.112293 98.07682295 -100.46484375 96.265625 C-94.22320786 92.11112884 -89.47890368 90.87110888 -82 92 C-78.5 92.9375 -78.5 92.9375 -76 95 C-75.03795747 97.24760379 -74.35927032 99.49286846 -73.69140625 101.84375 C-72.72362524 104.86191451 -71.62681375 106.22512585 -69 108 C-67.79472656 108.226875 -66.58945312 108.45375 -65.34765625 108.6875 C-60.13873082 109.92518842 -56.95693503 112.97392375 -53.125 116.5625 C-51.81639334 117.75272103 -50.50655622 118.94159105 -49.1953125 120.12890625 C-48.62828613 120.65556885 -48.06125977 121.18223145 -47.47705078 121.72485352 C-45.60683662 123.33942022 -44.50534898 123.99503586 -42.01171875 124.01953125 C-36.85034073 123.55977825 -33.7012827 122.91900521 -30 119 C-29.2575 117.7625 -29.2575 117.7625 -28.5 116.5 C-26.66716858 113.44528097 -25.04058204 111.86581171 -22 110 C-17.14380527 109.19063421 -13.84817625 110.36613027 -9.25 112 C-3.42438998 113.88993627 1.92433181 114.47407587 8 114.5625 C9.21961426 114.60213867 9.21961426 114.60213867 10.46386719 114.64257812 C14.81742393 114.61723518 16.48543823 114.4174492 19.98046875 111.58203125 C22.74868175 108.04278794 23.81871473 106.0877116 24.5625 101.625 C23.86837044 97.15172061 22.63140475 95.97454785 19.22192383 93.20410156 C14.31934546 90.54730379 8.54209896 91.83891582 3.18164062 92.32226562 C-2.29548601 92.61291949 -5.31441251 92.3346811 -9.5625 88.671875 C-11.6436291 86.59833335 -13.31897795 84.56503006 -15.0625 82.1875 C-17.67810549 79.23439703 -20.21360617 78.80096793 -24 78 C-23.98839844 78.99902344 -23.97679687 79.99804688 -23.96484375 81.02734375 C-23.95582031 82.31769531 -23.94679688 83.60804688 -23.9375 84.9375 C-23.92589844 86.22527344 -23.91429687 87.51304687 -23.90234375 88.83984375 C-24 92 -24 92 -25 93 C-27.6875 93.5 -27.6875 93.5 -31 93 C-34.23093707 90.3786737 -36.4498454 86.79188919 -38.8046875 83.40234375 C-45.35629597 74.04854129 -52.36368979 66.53028027 -63 62 C-63.33 62.33 -63.66 62.66 -64 63 C-60.36695139 68.88804431 -55.99028088 72.6705094 -50.5234375 76.88671875 C-48.2267665 78.81009184 -46.54586722 80.44458684 -45 83 C-45.41025641 87.41025641 -45.41025641 87.41025641 -47 89 C-50.69963504 89.63993687 -51.92335134 89.05338908 -55.05078125 86.875 C-56.14966617 85.93004253 -57.23646125 84.97089304 -58.3125 84 C-58.88427979 83.50032715 -59.45605957 83.0006543 -60.04516602 82.48583984 C-65.11777551 78.01013439 -69.88815097 73.24344464 -74.5703125 68.36328125 C-77.09741578 65.94864068 -78.60638452 65.02361693 -82.125 64.8125 C-94.30583572 67.72296517 -103.6820684 75.55422703 -111.125 85.25 C-114.43883444 89.52379442 -116.97608025 91.95321788 -122 94 C-127.10584404 94.5205679 -130.16950728 93.25936896 -134.625 90.8125 C-135.73101563 90.22082031 -136.83703125 89.62914062 -137.9765625 89.01953125 C-141.64366074 86.57006123 -144.02870407 83.94259186 -146 80 C-146.66662815 75.90499852 -146.03289674 73.44764538 -143.6875 70.125 C-141.53982524 67.79235804 -140.41185714 67.07157631 -137.2578125 66.5234375 C-133.22711851 66.49136301 -129.83489722 66.72170093 -126 68 C-121.54080843 68.14156164 -118.34776105 68.08694026 -114 67 C-113.67 62.05 -113.34 57.1 -113 52 C-110.64875 50.91332031 -110.64875 50.91332031 -108.25 49.8046875 C-106.16644129 48.82860594 -104.0831205 47.85201642 -102 46.875 C-100.97003906 46.400625 -99.94007813 45.92625 -98.87890625 45.4375 C-90.03194774 41.26759599 -82.95771065 36.81949523 -77 29 C-73.81466541 29.36753861 -72.79208345 30.19306536 -70.375 32.4375 C-63.20221566 38.6110905 -51.86157005 37.47990871 -43 37 C-40.70845746 36.55195125 -40.70845746 36.55195125 -39 36 C-39.18399325 31.40016877 -39.49538095 29.50461905 -42.8125 26.1875 C-43.34746094 25.71441406 -43.88242187 25.24132812 -44.43359375 24.75390625 C-47.39519842 21.43779529 -48.60217814 17.16057566 -50 13 C-51.65 13 -53.3 13 -55 13 C-55.0984702 17.13574827 -54.77403558 20.93631321 -54 25 C-58.09480913 27.978043 -60.96541959 28.70660778 -66 28 C-67.47214958 26.78387644 -68.94245315 25.56028144 -70.3203125 24.23828125 C-72.97714845 22.27963708 -75.83628646 21.95390805 -79.046875 21.45703125 C-81 21 -81 21 -83 19 C-83.25 15.5 -83.25 15.5 -83 12 C-80.2095082 9.2095082 -76.83558008 8.35215965 -73.1875 7.0625 C-67.62872686 5.14613702 -67.62872686 5.14613702 -62.5 2.33203125 C-58.99646063 0.46530168 -55.68455075 0.55061148 -51.8125 0.625 C-51.05509521 0.63515137 -50.29769043 0.64530273 -49.51733398 0.65576172 C-39.98917585 0.91864962 -33.12649441 3.53474999 -25.12890625 8.6953125 C-22.94542054 10.14379748 -22.94542054 10.14379748 -20 11 C-18.02987151 9.70488185 -18.02987151 9.70488185 -16.125 7.8125 C-15.41730469 7.16796875 -14.70960938 6.5234375 -13.98046875 5.859375 C-12.46086572 4.43268655 -10.94775317 2.99908229 -9.4375 1.5625 C-6.05194376 -0.60772836 -4.00429492 -0.30463104 0 0 Z " fill="#3568B2" transform="translate(980,392)"/>
<path d="M0 0 C38.28 0 76.56 0 116 0 C135.31023446 48.84353423 135.31023446 48.84353423 142.82495117 67.9987793 C145.14502275 73.91245658 147.46698063 79.8253931 149.7890625 85.73828125 C150.24343689 86.89530548 150.69781128 88.05232971 151.16595459 89.24441528 C154.93284002 98.8340173 158.71294315 108.41834927 162.5 118 C168.68857987 133.65807069 174.84629733 149.3281926 181 165 C187.04000505 180.38200602 193.08210544 195.76312799 199.15255737 211.13314819 C200.04827128 213.40146698 200.94328561 215.67006066 201.83813477 217.9387207 C204.49815104 224.68030211 207.16464004 231.41915692 209.8495636 238.15086365 C211.08766752 241.256755 212.32201094 244.36413352 213.55587769 247.47171021 C214.13709405 248.93248686 214.72016157 250.39252852 215.3052063 251.85177612 C216.10258804 253.84080009 216.89376514 255.83218595 217.68359375 257.82421875 C218.35733032 259.51164185 218.35733032 259.51164185 219.04467773 261.2331543 C220 264 220 264 220 267 C196.79599444 269.78674978 173.54573317 271.85292139 150.25 273.6875 C148.86750249 273.79681965 147.48500534 273.90614375 146.10250854 274.01547241 C137.40346836 274.70173641 128.70277247 275.36282536 120 276 C119.13875519 276.06430206 118.27751038 276.12860413 117.39016724 276.19485474 C105.40101477 277.07479691 93.45330923 277.11877268 81.4375 277.0625 C79.53971474 277.05746781 77.64192817 277.05290798 75.74414062 277.04882812 C71.16272706 277.03797514 66.58137871 277.02080844 62 277 C62 276.67 62 276.34 62 276 C62.66829834 275.84966309 63.33659668 275.69932617 64.02514648 275.54443359 C85.54168675 270.93188122 85.54168675 270.93188122 106 263 C105.48722064 254.94936401 102.75551231 247.62010933 100.125 240.0625 C99.86834564 239.31846924 99.61169128 238.57443848 99.34725952 237.80786133 C90.08394587 211.02058326 79.44574553 184.72073328 69 158.37890625 C68.60181564 157.37419281 68.20363129 156.36947937 67.79338074 155.33432007 C65.89479475 150.54529134 63.99182213 145.75810899 62.0793457 140.97460938 C61.4031145 139.27605881 60.72692395 137.57749205 60.05078125 135.87890625 C59.73927124 135.10430557 59.42776123 134.3297049 59.10681152 133.53163147 C57 128.22619013 57 128.22619013 57 126 C56.34 126 55.68 126 55 126 C54.75360275 126.96894196 54.75360275 126.96894196 54.50222778 127.9574585 C52.55282048 135.38368553 50.12322059 142.55615037 47.4921875 149.765625 C46.83485626 151.58310493 46.83485626 151.58310493 46.16424561 153.43730164 C44.98371795 156.70122638 43.79798282 159.96323589 42.61121368 163.22489548 C41.37094812 166.63649655 40.13564518 170.04989346 38.89990234 173.46313477 C36.89593857 178.99663515 34.88936896 184.52918326 32.88085938 190.06103516 C30.26311298 197.27144618 27.6531859 204.48466566 25.046875 211.69921875 C24.28792341 213.79980477 23.5289716 215.90039071 22.77001953 218.00097656 C22.4102301 218.99681763 22.05044067 219.99265869 21.67974854 221.01867676 C19.42128304 227.26856604 17.16079208 233.51771559 14.89550781 239.76513672 C13.51923995 243.56155897 12.15048954 247.36062763 10.78417969 251.16064453 C10.05147955 253.19174882 9.3187333 255.22283647 8.5859375 257.25390625 C8.24213043 258.21368881 7.89832336 259.17347137 7.5440979 260.16233826 C7.22581024 261.04277298 6.90752258 261.9232077 6.57958984 262.83032227 C6.2982016 263.61270767 6.01681335 264.39509308 5.72689819 265.20118713 C5 267 5 267 4 268 C-2.41233527 268.31729622 -8.38768318 267.45301174 -14.6875 266.3125 C-15.6986084 266.13098389 -16.7097168 265.94946777 -17.75146484 265.76245117 C-68.67746636 256.40017689 -129.7530498 237.72307071 -162 194 C-157.8457841 194 -154.82290076 195.93109717 -151.1875 197.75 C-143.58701695 201.44871765 -136.20968732 203.94248531 -128 206 C-126.87851562 206.34289062 -125.75703125 206.68578125 -124.6015625 207.0390625 C-117.1317413 209.03209505 -109.8091634 209.18221516 -102.125 209.1875 C-101.19558594 209.19974609 -100.26617187 209.21199219 -99.30859375 209.22460938 C-97.44867506 209.22850042 -95.58818789 209.19094542 -93.72998047 209.11108398 C-91 209 -91 209 -88.33642578 209.17211914 C-85.17848362 209.09504496 -83.64187166 208.77072391 -81 207 C-78.12133328 202.18129985 -76.3380749 197.12585049 -74.55279541 191.81945801 C-73.60467461 189.00210281 -72.61000974 186.20529563 -71.60107422 183.40917969 C-70.52122991 180.41500207 -69.44458461 177.42003897 -68.3821106 174.41964722 C-64.63003831 163.83546805 -60.52974164 153.3968495 -56.39465332 142.95758057 C-54.68621704 138.64148346 -52.98882317 134.32107798 -51.2913208 130.00067139 C-50.02134407 126.76846183 -48.75000225 123.53679163 -47.47851562 120.30517578 C-43.96993769 111.38357366 -40.47735948 102.45571873 -36.98574829 93.52746582 C-35.88044788 90.70142916 -34.77464664 87.87558896 -33.66870117 85.04980469 C-30.24308257 76.29626304 -26.82022864 67.54165734 -23.4041748 58.78437805 C-21.80139447 54.6760939 -20.19729072 50.56832705 -18.59307861 46.46060181 C-17.84156578 44.53521981 -17.09067727 42.60959396 -16.34051514 40.6836853 C-15.98886292 39.78090851 -15.63721069 38.87813171 -15.27490234 37.94799805 C-14.97151947 37.16853317 -14.6681366 36.3890683 -14.3555603 35.58598328 C-9.68746189 23.66752078 -4.84907068 11.85328388 0 0 Z " fill="#1E458E" transform="translate(479,691)"/>
<path d="M0 0 C30.03 0 60.06 0 91 0 C93.50585794 10.02343176 95.9042385 19.95097467 97.9375 30.0625 C99.74834453 38.95277789 101.6013387 47.82918589 103.5625 56.6875 C105.5812618 65.847903 107.38144403 75.04111827 109.12963867 84.2565918 C111.05658128 94.38558471 113.15828974 104.47340893 115.28027344 114.56298828 C116.70179817 121.35139575 118.10097241 128.14442607 119.5 134.9375 C119.64863495 135.65895203 119.7972699 136.38040405 119.95040894 137.12371826 C122.68531856 150.40554136 125.36369558 163.69822544 128 177 C129.71762626 172.26824079 130.75167991 167.53211805 131.62890625 162.58984375 C131.94010072 160.88411395 132.25129881 159.17838482 132.5625 157.47265625 C132.80613281 156.12324951 132.80613281 156.12324951 133.0546875 154.74658203 C136.02874928 138.29487298 139.18205573 121.88557322 142.5 105.5 C145.66105746 89.87145563 148.66753022 74.22178954 151.54907227 58.53939819 C155.14623997 38.98013895 159.05909305 19.49341472 163 0 C185.77 0 208.54 0 232 0 C230.6693615 9.3144695 229.18295527 18.25618063 227.0625 27.375 C225.12988932 35.87095357 223.31321563 44.34828531 221.76171875 52.921875 C218.8217513 68.94931009 215.18903225 84.86150911 211.80004883 100.79907227 C210.18424618 108.4003111 208.57732948 116.00331261 206.984375 123.609375 C206.30227337 126.86462319 205.61998524 130.11983222 204.9375 133.375 C204.76943848 134.17675659 204.60137695 134.97851318 204.42822266 135.80456543 C202.01845797 147.28929015 199.51700252 158.74911887 196.93945312 170.19750977 C195.39298494 177.10681691 194.02893582 184.01935735 192.77734375 190.98828125 C191.65595483 196.98901949 190.21274396 202.92244442 188.83569336 208.8684082 C187.31387717 215.48701896 186.02100593 222.10916137 184.81640625 228.79296875 C183.6693968 234.91085094 182.22277318 240.96665816 180.80078125 247.02539062 C179.33028718 253.34013887 178.16339343 259.60133614 177 266 C147.63 266 118.26 266 88 266 C86.35 257.75 84.7 249.5 83 241 C81.85263657 235.40687963 80.70401298 229.81419125 79.54760742 224.22296143 C76.17450211 207.89684311 72.94200703 191.54879027 69.80371094 175.17578125 C68.42946293 168.02267707 67.02947914 160.87455858 65.63284302 153.72579956 C65.12684975 151.13447305 64.621777 148.54296867 64.11694336 145.95141602 C62.52627076 137.78963292 60.92917979 129.62923751 59.31140137 121.47277832 C58.57053123 117.73547162 57.83307222 113.99749536 57.09588623 110.25946045 C56.74460628 108.48328384 56.39166169 106.70743552 56.03692627 104.9319458 C54.31276202 96.30041675 52.63523171 87.79482776 52 79 C51.34 79 50.68 79 50 79 C49.89840576 79.71148193 49.79681152 80.42296387 49.69213867 81.15600586 C48.18465146 91.34808623 46.26010043 101.44705858 44.3125 111.5625 C43.95430691 113.43072241 43.59623602 115.29896824 43.23828125 117.16723633 C42.33285169 121.88864354 41.42406456 126.60939767 40.51422119 131.32995605 C40.03234104 133.83207227 39.55175069 136.33443147 39.07177734 138.83691406 C35.64806487 156.68212066 32.09949043 174.49754512 28.42538452 192.29290771 C25.14835304 208.1705942 22.04396749 224.07590271 19 240 C17.35 248.58 15.7 257.16 14 266 C-9.1 266 -32.2 266 -56 266 C-53.75281026 250.26967185 -53.75281026 250.26967185 -52.4140625 244.58984375 C-52.12515137 243.34388428 -51.83624023 242.0979248 -51.53857422 240.81420898 C-51.23709473 239.53489502 -50.93561523 238.25558105 -50.625 236.9375 C-49.98991221 234.19902735 -49.36075454 231.45922679 -48.734375 228.71875 C-48.58140961 228.04988266 -48.42844421 227.38101532 -48.27084351 226.69187927 C-47.00870255 221.12919416 -45.90065524 215.54792648 -44.875 209.9375 C-43.63307827 203.16748807 -42.24087049 196.45554725 -40.6875 189.75 C-38.57032951 180.60339411 -36.56945061 171.43468224 -34.625 162.25 C-34.47768433 161.55457092 -34.33036865 160.85914185 -34.17858887 160.14263916 C-32.03876096 150.02891329 -29.94957381 139.90522934 -27.87780762 129.77737427 C-27.7325061 129.06709076 -27.58720459 128.35680725 -27.4375 127.625 C-27.29235962 126.91544159 -27.14721924 126.20588318 -26.99768066 125.474823 C-24.37119607 112.65067717 -21.56632996 99.87081073 -18.6953125 87.09912109 C-15.96049741 74.90960469 -13.28178731 62.720777 -11 50.4375 C-9.34189102 41.51317028 -7.39893951 32.67262202 -5.34375 23.83203125 C-3.51582644 15.89863043 -1.76608777 7.94739498 0 0 Z " fill="#1E458E" transform="translate(1478,952)"/>
<path d="M0 0 C32.34 0 64.68 0 98 0 C99.19523472 7.76902565 100.3434153 15.4096456 101.09741211 23.21118164 C101.19042099 24.14346085 101.28342987 25.07574005 101.3792572 26.03627014 C101.68186567 29.07725362 101.97959803 32.11869317 102.27734375 35.16015625 C102.49116381 37.31655668 102.70532782 39.47292303 102.91981506 41.6292572 C103.48224927 47.29146341 104.04070023 52.95405487 104.5980835 58.61676025 C105.48343188 67.60477378 106.37453428 76.59221985 107.26581192 85.57964706 C107.48155221 87.75548655 107.69713642 89.93134153 107.91256332 92.10721207 C109.34884189 106.60827014 110.83887346 121.10122653 112.41625977 135.58764648 C113.17334768 142.55268938 113.84675398 149.52446003 114.5 156.5 C115.41692042 166.13218571 116.38628847 175.75644989 117.4375 185.375 C118.92511149 198.99336179 120.24944443 212.62628048 121.55444336 226.26318359 C121.71447855 227.92807937 121.87471367 229.59295594 122.03515625 231.2578125 C122.1129985 232.06789764 122.19084076 232.87798279 122.27104187 233.71261597 C122.67019919 237.81221245 123.09564708 241.9069364 123.56591797 245.99902344 C123.70506874 247.21088821 123.70506874 247.21088821 123.84703064 248.44723511 C124.02336755 249.96406046 124.20322857 251.48048244 124.38746643 252.99636841 C124.90381108 257.41609711 125 261.50268728 125 266 C100.58 266 76.16 266 51 266 C50.34 259.503125 49.68 253.00625 49 246.3125 C48.79117187 244.29036377 48.58234375 242.26822754 48.3671875 240.18481445 C48.2026167 238.53602071 48.03852429 236.88717911 47.875 235.23828125 C47.78863281 234.41952515 47.70226563 233.60076904 47.61328125 232.75720215 C46.92751627 225.74137739 47 219.15500662 47 212 C20.27 212 -6.46 212 -34 212 C-34.99 214.97 -34.99 214.97 -36 218 C-36.57265271 219.3488616 -37.17089537 220.68729039 -37.80004883 222.01074219 C-38.31617485 223.1028299 -38.31617485 223.1028299 -38.84272766 224.21697998 C-39.21044785 224.98584534 -39.57816803 225.75471069 -39.95703125 226.546875 C-40.3418718 227.35811829 -40.72671234 228.16936157 -41.12321472 229.00518799 C-41.93608463 230.71711404 -42.75059639 232.42826135 -43.56665039 234.13867188 C-44.80115931 236.72622966 -46.03092324 239.31599711 -47.25976562 241.90625 C-48.05440908 243.57825735 -48.84932248 245.25013644 -49.64453125 246.921875 C-50.00617874 247.68264343 -50.36782623 248.44341187 -50.74043274 249.22723389 C-53.42682738 254.85522894 -56.20976556 260.41953112 -59 266 C-84.41 266 -109.82 266 -136 266 C-134.37836835 261.94592087 -132.60944232 258.07348739 -130.65625 254.1796875 C-130.33101349 253.5278952 -130.00577698 252.87610291 -129.67068481 252.20455933 C-128.61612481 250.09352895 -127.5582818 247.98416677 -126.5 245.875 C-125.95844269 244.79321472 -125.95844269 244.79321472 -125.40594482 243.6895752 C-120.8483859 234.58760975 -116.23235587 225.52351357 -111.44726562 216.53857422 C-108.15921495 210.3519932 -105.01476706 204.09904039 -101.92431641 197.81152344 C-99.17603491 192.25219777 -96.30405338 186.76354281 -93.40625 181.28125 C-88.18407876 171.39591844 -83.09124076 161.44696447 -78.01919556 151.48394775 C-75.38409434 146.30817935 -72.74467119 141.13461551 -70.10546875 135.9609375 C-69.31773323 134.41646439 -69.31773323 134.41646439 -68.51408386 132.84078979 C-63.96564535 123.92584497 -59.39490277 115.0225248 -54.8125 106.125 C-48.80801807 94.46483292 -42.81869176 82.79703812 -36.84243774 71.12237549 C-29.9940376 57.74441681 -23.14490714 44.36681379 -16.27905273 30.99780273 C-15.5251798 29.52944899 -14.77174266 28.0608714 -14.01879883 26.59204102 C-12.97472138 24.55550718 -11.92896303 22.51984453 -10.8828125 20.484375 C-10.29902832 19.34709961 -9.71524414 18.20982422 -9.11376953 17.03808594 C-6.12675804 11.3317831 -3.05359042 5.67095364 0 0 Z " fill="#1E458E" transform="translate(1274,952)"/>
<path d="M0 0 C2.50160818 1.87620613 3.61945652 3.23891303 5 6 C5.12471821 8.37254644 5.17569188 10.74920712 5.1875 13.125 C5.20167969 14.40632813 5.21585938 15.68765625 5.23046875 17.0078125 C4.78919459 24.65157838 2.35760687 31.02737149 -0.8125 37.9375 C-1.20211914 38.79158447 -1.59173828 39.64566895 -1.99316406 40.52563477 C-15.41061723 69.51970137 -31.78299477 96.29330274 -51.2578125 121.58203125 C-51.65307129 122.09636719 -52.04833008 122.61070312 -52.45556641 123.140625 C-54 125 -54 125 -56.30615234 127.375 C-64.37896817 136.07090077 -67.24756647 145.08113326 -70.375 156.375 C-70.87097637 158.0815225 -71.36966354 159.78725954 -71.87109375 161.4921875 C-73.06664034 165.58052214 -74.22855232 169.67735079 -75.37631226 173.77932739 C-75.94942464 175.81992381 -76.5311248 177.85773076 -77.1184082 179.89428711 C-79.3146466 187.51082713 -81.40091077 195.15190819 -83.4375 202.8125 C-85.64370216 211.0644307 -87.89444069 219.29528917 -90.36474609 227.47241211 C-91.80334723 232.2419097 -93.03794161 237.03800195 -94.12890625 241.8984375 C-95.23531079 244.56770047 -96.53841754 245.54285636 -99 247 C-101.0625 246.9375 -101.0625 246.9375 -103 246 C-111.31482325 236.78153713 -109.36639942 220.19607934 -109.1875 208.625 C-109.17240912 206.90626187 -109.15872859 205.18751076 -109.14648438 203.46875 C-109.113866 199.31217149 -109.06233393 195.15623469 -109 191 C-109.78761719 192.0415625 -110.57523438 193.083125 -111.38671875 194.15625 C-118.6167617 203.68314528 -126.02201388 213.03783713 -133.60302734 222.28710938 C-135.46514231 224.57033179 -137.2958723 226.87780718 -139.125 229.1875 C-142.61820349 233.57055112 -146.22966924 237.84569867 -149.86376953 242.11181641 C-152.79376682 245.55595484 -155.66324093 249.040656 -158.5 252.5625 C-162.63041555 257.64039439 -167.00831768 262.44563853 -171.45703125 267.2421875 C-173.44988239 269.40340548 -175.39707785 271.58346969 -177.3125 273.8125 C-190.67892814 289.17912998 -204.80272919 304.59457583 -221 317 C-222.06783112 317.83578065 -223.13553446 318.67172457 -224.203125 319.5078125 C-233.14787247 326.41717219 -233.14787247 326.41717219 -237 327 C-236.97679687 328.12019531 -236.95359375 329.24039062 -236.9296875 330.39453125 C-236.91092763 331.86718084 -236.89272766 333.33983763 -236.875 334.8125 C-236.85824219 335.55048828 -236.84148437 336.28847656 -236.82421875 337.04882812 C-236.78925372 340.91246426 -236.80602445 342.70903668 -239 346 C-242 346.3125 -242 346.3125 -245 346 C-245.66 345.34 -246.32 344.68 -247 344 C-250.05221142 344.36305211 -252.0154768 345.52148714 -254.42578125 347.36328125 C-255.05806641 347.83830078 -255.69035156 348.31332031 -256.34179688 348.80273438 C-257.31729492 349.55006836 -257.31729492 349.55006836 -258.3125 350.3125 C-272.08593944 360.80588727 -272.08593944 360.80588727 -279.9765625 360.375 C-282 360 -282 360 -284.5625 358.5 C-286.55612966 355.03281798 -286.5902803 351.85741315 -286 348 C-285.36816087 345.98872584 -284.70726692 343.98600552 -284 342 C-287.41852697 342.95177951 -290.8344602 343.91256087 -294.25 344.875 C-295.21808594 345.14441406 -296.18617187 345.41382813 -297.18359375 345.69140625 C-298.11816406 345.95566406 -299.05273438 346.21992187 -300.015625 346.4921875 C-301.30388184 346.85352783 -301.30388184 346.85352783 -302.61816406 347.22216797 C-305.00100036 347.92957114 -305.00100036 347.92957114 -307.08496094 349.07861328 C-310.07358707 350.51653718 -312.74717397 350.24095008 -316 350 C-318 348 -318 348 -318.25 345.25 C-316.55820082 340.85132214 -314.34559096 339.67922546 -310.29296875 337.4453125 C-305.03388707 335.13705601 -299.59106238 333.65151769 -294.05078125 332.17578125 C-290.17234704 331.10590031 -286.621239 329.76180948 -283 328 C-282.67 327.34 -282.34 326.68 -282 326 C-283.24265625 325.74347656 -284.4853125 325.48695313 -285.765625 325.22265625 C-290.47898866 324.17698233 -295.05449914 322.80827728 -299.6652832 321.38378906 C-318.48287076 315.18943523 -318.48287076 315.18943523 -337.05078125 319.87109375 C-337.69402344 320.24363281 -338.33726563 320.61617187 -339 321 C-339.35230228 316.59622152 -339.49045176 313.07007657 -337.625 309 C-334.50774845 305.4374268 -331.15152407 302.33691966 -327.5625 299.25390625 C-325.02856648 297.10350275 -325.02856648 297.10350275 -323.0625 294.90234375 C-317.73623184 289.31205799 -312.95545036 289.28606512 -305.48950195 289.05303955 C-295.53611881 288.84097988 -285.57985646 288.90244769 -275.625 288.9375 C-273.13541757 288.94252455 -270.64583415 288.94708577 -268.15625 288.95117188 C-262.104145 288.96210294 -256.05207716 288.97876549 -250 289 C-249.54540154 287.82802315 -249.54540154 287.82802315 -249.08161926 286.63237 C-248.01963708 284.04779136 -246.80901942 282.04449536 -245.19921875 279.76953125 C-244.64121582 278.97619385 -244.08321289 278.18285645 -243.50830078 277.36547852 C-242.90743652 276.52299561 -242.30657227 275.6805127 -241.6875 274.8125 C-240.74753174 273.48400024 -240.74753174 273.48400024 -239.78857422 272.12866211 C-237.86487294 269.41491244 -235.93320393 266.70698568 -234 264 C-233.17218018 262.83500977 -233.17218018 262.83500977 -232.32763672 261.64648438 C-221.25093572 246.06591946 -209.88560499 230.61641676 -197.6015625 215.9609375 C-195.85394536 213.88568406 -195.85394536 213.88568406 -194 211 C-218.4178793 215.63305732 -242.73129333 220.64203764 -267 226 C-268.3448763 226.29628309 -269.68976527 226.59250867 -271.03466797 226.88867188 C-284.29609455 229.7945856 -284.29609455 229.7945856 -297.52734375 232.83349609 C-298.69394531 233.10887207 -299.86054687 233.38424805 -301.0625 233.66796875 C-302.12597656 233.92215576 -303.18945312 234.17634277 -304.28515625 234.43823242 C-307 235 -307 235 -310 235 C-309.85834107 232.60385425 -309.71181159 230.20817103 -309.5625 227.8125 C-309.52318359 227.13896484 -309.48386719 226.46542969 -309.44335938 225.77148438 C-309.32124637 223.84585619 -309.16139017 221.92273469 -309 220 C-308.96898193 219.17314697 -308.93796387 218.34629395 -308.90600586 217.49438477 C-307.76374246 214.34954371 -306.19038757 213.62485268 -303.24029541 212.22450256 C-302.56287292 211.92611984 -301.88545044 211.62773712 -301.1875 211.3203125 C-300.12665192 210.82651344 -300.12665192 210.82651344 -299.04437256 210.32273865 C-296.70407668 209.23882265 -294.35255683 208.18200791 -292 207.125 C-290.35246326 206.36868747 -288.70566171 205.6107715 -287.05957031 204.85131836 C-282.84757166 202.91338438 -278.62594676 200.99749019 -274.40112305 199.08770752 C-270.81915657 197.46507853 -267.2457102 195.8240315 -263.671875 194.18359375 C-257.62564437 191.41287004 -251.56815378 188.66778816 -245.50456238 185.93528748 C-240.94844572 183.88165958 -236.39702591 181.81797356 -231.84823608 179.74816895 C-213.99272544 171.62663136 -196.08382589 163.6640858 -178 156.0625 C-177.1931778 155.72316437 -176.38635559 155.38382874 -175.55508423 155.03421021 C-173.26700293 154.07350252 -170.97765956 153.11589803 -168.6875 152.16015625 C-168.024655 151.88284668 -167.36181 151.60553711 -166.67887878 151.31982422 C-153.86841661 146 -153.86841661 146 -150 146 C-149.76667969 145.34386719 -149.53335937 144.68773437 -149.29296875 144.01171875 C-143.1213278 129.6360838 -133.11732976 116.53082938 -124.375 103.625 C-123.88867096 102.90655914 -123.40234192 102.18811829 -122.90127563 101.44790649 C-113.33270068 87.33385086 -103.57392144 73.38442721 -93 60 C-92.50097168 59.36803711 -92.00194336 58.73607422 -91.48779297 58.08496094 C-84.03119835 48.68326757 -76.27243386 39.69097962 -68 31 C-67.401875 30.33742188 -66.80375 29.67484375 -66.1875 28.9921875 C-62.5327327 25.06331266 -58.38113125 21.90740939 -54.0625 18.75 C-53.48902832 18.32501221 -52.91555664 17.90002441 -52.32470703 17.4621582 C-46.81571535 13.54574328 -41.05411676 10.33890506 -34.125 11.25 C-28.55908922 11.45425361 -25.78937559 9.13053547 -21.50390625 5.82421875 C-15.32719315 1.32417972 -7.69127661 -1.60104125 0 0 Z " fill="#1F458E" transform="translate(1640,322)"/>
<path d="M0 0 C25.41 0 50.82 0 77 0 C79.64950193 9.93563222 82.11863409 19.77264479 84.25 29.8125 C86.85588465 41.94678307 89.62521941 54.03437966 92.50210571 66.10705566 C95.4423023 78.45806602 98.19320374 90.84441861 100.83007812 103.26367188 C101.10142578 104.52888672 101.37277344 105.79410156 101.65234375 107.09765625 C101.88945068 108.21664307 102.12655762 109.33562988 102.37084961 110.48852539 C102.75215001 112.9235113 102.75215001 112.9235113 104 114 C104.36649658 113.42258057 104.73299316 112.84516113 105.1105957 112.25024414 C111.59439587 102.03858757 118.08701839 91.83379629 124.6730957 81.68774414 C128.80946011 75.30932216 132.90550073 68.90535558 137 62.5 C141.48234455 55.48844428 145.97062085 48.48127614 150.5 41.5 C155.15115212 34.32924925 159.76668552 27.13582778 164.375 19.9375 C165.05369141 18.87789062 165.73238281 17.81828125 166.43164062 16.7265625 C167.08068359 15.71207031 167.72972656 14.69757812 168.3984375 13.65234375 C168.97255371 12.75507568 169.54666992 11.85780762 170.13818359 10.93334961 C172.01444336 8.23682604 172.01444336 8.23682604 172.70433044 5.89541626 C173.81554122 3.16869154 174.66178828 1.82625935 177 0 C182.98536176 -1.17227789 188.91351689 -0.92965323 194.98828125 -0.78125 C196.77472907 -0.76632275 198.56120971 -0.75493801 200.34770203 -0.74694824 C205.04215455 -0.71645134 209.73461608 -0.63791194 214.42828369 -0.54931641 C219.22079533 -0.46737059 224.01362983 -0.43091827 228.80664062 -0.390625 C238.20530028 -0.30491332 247.60248437 -0.1684377 257 0 C255.71434865 3.32832884 254.4706821 5.97019871 252.234375 8.7578125 C251.68136719 9.45575928 251.12835937 10.15370605 250.55859375 10.87280273 C249.66333984 11.98764038 249.66333984 11.98764038 248.75 13.125 C243.72271594 19.48521691 238.79220243 25.89811215 234 32.4375 C233.1352002 33.61723389 233.1352002 33.61723389 232.25292969 34.82080078 C231.08465063 36.41636407 229.91700685 38.0123927 228.75 39.60888672 C225.84354822 43.58011841 222.92092541 47.53940935 220 51.5 C218.83458548 53.08199446 217.66922091 54.66402573 216.50390625 56.24609375 C214.15987983 59.42750611 211.81329118 62.60700616 209.46484375 65.78515625 C203.77035401 73.49539457 198.10117057 81.22163589 192.5 89 C185.15975779 99.19341866 177.69545642 109.29401291 170.22949219 119.39550781 C162.30588727 130.11928233 154.44273773 140.88329663 146.65283203 151.70458984 C143.73004914 155.76367473 140.8025489 159.81935193 137.875 163.875 C137.33029053 164.63047119 136.78558105 165.38594238 136.22436523 166.16430664 C135.71462158 166.87063232 135.20487793 167.57695801 134.6796875 168.3046875 C134.23351074 168.92327637 133.78733398 169.54186523 133.32763672 170.17919922 C132 172 132 172 130.45629883 173.71362305 C128.36206707 177.00154935 127.77260828 180.50862825 127.01953125 184.27734375 C126.75865471 185.51756287 126.75865471 185.51756287 126.49250793 186.78283691 C125.92317928 189.49920591 125.36802931 192.21827866 124.8125 194.9375 C124.41894757 196.82388761 124.02424052 198.71003469 123.62841797 200.59594727 C122.81493539 204.47585663 122.00603911 208.35667704 121.20068359 212.23828125 C119.54791837 220.18890793 117.84831483 228.12932284 116.13534546 236.06716919 C115.63752974 238.37930484 115.14428578 240.69237944 114.65161133 243.00561523 C114.34345418 244.43998277 114.03511437 245.87431107 113.7265625 247.30859375 C113.46439941 248.53376709 113.20223633 249.75894043 112.93212891 251.02124023 C111.75465446 256.04724889 110.35823664 261.01979897 109 266 C84.25 266 59.5 266 34 266 C35.61988116 258.71053479 37.28000985 251.43444143 38.97680664 244.1628418 C39.43414164 242.20189982 39.88995557 240.24060832 40.34570312 238.27929688 C41.68489797 232.53615541 43.04293191 226.80506434 44.52734375 221.09765625 C46.24809233 214.27020691 47.49895265 207.36270395 48.73486328 200.43505859 C49.12707632 198.23837103 49.52596728 196.04297181 49.92578125 193.84765625 C53.18602314 175.787455 54.21560526 161.33651682 48.0078125 143.875 C47.47108574 142.31391235 46.93636824 140.75213269 46.40348816 139.18972778 C45.26187167 135.8550834 44.10743043 132.52528922 42.94229126 129.1987915 C41.10174548 123.94306611 39.29068501 118.67749305 37.48510742 113.40966797 C35.60018771 107.91387151 33.71395556 102.41856054 31.81822205 96.92648315 C25.43756879 78.43524215 19.22350572 59.8895649 13.04608154 41.32958984 C11.60712274 37.00703346 10.1630302 32.68621318 8.71719265 28.36595345 C7.64062731 25.14749936 6.56665091 21.92818603 5.493433 18.70861435 C4.99427392 17.21256051 4.49417702 15.71681921 3.99309349 14.22140884 C3.31198621 12.18776027 2.63461341 10.15290676 1.95825195 8.11767578 C1.57780228 6.97775177 1.1973526 5.83782776 0.80537415 4.6633606 C0 2 0 2 0 0 Z " fill="#1E458E" transform="translate(1725,952)"/>
<path d="M0 0 C1.64335113 1.43762241 3.27060903 2.89402372 4.875 4.375 C5.51566406 4.94734375 6.15632812 5.5196875 6.81640625 6.109375 C18.89346624 17.45694815 32.42506065 38.05519118 32.96484375 55.234375 C32.93519531 55.94078125 32.90554688 56.6471875 32.875 57.375 C31.94042969 57.59414063 31.00585938 57.81328125 30.04296875 58.0390625 C-36.72078943 74.01405994 -85.53512081 109.67858493 -122.125 167.375 C-124.15209835 170.69253473 -126.14958092 174.0264618 -128.125 177.375 C-141.32892138 174.45179562 -158.02167874 157.41603196 -165.125 146.375 C-180.30736207 120.9408585 -184.94232626 89.34042746 -177.71582031 60.49658203 C-172.99701079 43.55176602 -165.66521358 28.73975328 -154.125 15.375 C-153.23941406 14.27285156 -153.23941406 14.27285156 -152.3359375 13.1484375 C-135.53022442 -7.08993187 -109.18824016 -19.49985018 -83.27954102 -22.4440918 C-53.82499107 -24.9172727 -23.4631593 -18.81540233 0 0 Z " fill="#DBBD25" transform="translate(822.125,309.625)"/>
<path d="M0 0 C4.68124703 0.39010392 9.13332645 0.7776441 13.70166016 1.94970703 C19.90210102 3.52255391 26.22790023 4.30168066 32.55615234 5.17724609 C34.80834747 5.49072282 37.05838992 5.81711144 39.30859375 6.14453125 C62.36163517 9.41848561 85.42253919 10.40698331 108.6875 10.375 C109.98618011 10.37545319 111.28486023 10.37590637 112.62289429 10.37637329 C132.07334373 10.36779337 151.40986432 9.64442262 170.8125 8.1875 C171.91975433 8.10481873 173.02700867 8.02213745 174.16781616 7.93695068 C186.92953777 6.95931082 199.62295437 5.65244192 212.30976868 3.95561218 C213.24612656 3.83144424 214.18248444 3.70727631 215.1472168 3.5793457 C215.96618942 3.46758499 216.78516205 3.35582428 217.62895203 3.24067688 C220.10198384 2.98964797 222.51599449 2.95905514 225 3 C222.2938591 4.80409394 220.92215097 5.40652251 217.87890625 6.12109375 C174.93294528 16.72967039 135.04473366 37.47482135 103 68 C102.14792969 68.78761719 101.29585937 69.57523438 100.41796875 70.38671875 C82.52945113 87.43010956 70.73771979 109.78684062 63 133 C25.71 133 -11.58 133 -50 133 C-49.13099304 128.65496522 -47.89466511 124.89555474 -46.24707031 120.82763672 C-45.9654454 120.12234833 -45.6838205 119.41705994 -45.3936615 118.69039917 C-44.78118554 117.15812407 -44.16673648 115.62663651 -43.55054474 114.0958519 C-42.55985684 111.63429673 -41.5746532 109.17060734 -40.59075928 106.70632935 C-38.13480888 100.55834518 -35.66979668 94.41400385 -33.20477295 88.26965332 C-25.55833904 69.20658419 -17.94941426 50.13783669 -10.796875 30.8828125 C-10.53475471 30.17881191 -10.27263443 29.47481133 -10.00257111 28.74947739 C-6.46538467 19.23009475 -3.15504597 9.65306449 0 0 Z " fill="#1F458E" transform="translate(325,1085)"/>
<path d="M0 0 C-0.81984375 0.60328125 -1.6396875 1.2065625 -2.484375 1.828125 C-3.57304557 2.63524283 -4.66158003 3.44254426 -5.75 4.25 C-6.28882813 4.64574219 -6.82765625 5.04148437 -7.3828125 5.44921875 C-9.84360758 7.27981021 -12.10957777 9.11108919 -14.265625 11.296875 C-16 13 -16 13 -18 13 C-18.26167969 13.57621094 -18.52335938 14.15242188 -18.79296875 14.74609375 C-20.0749807 17.1400125 -21.56396712 18.98829803 -23.3125 21.0625 C-28.91038295 28.10952175 -33.52192716 37.05997409 -33.38037109 46.22802734 C-32.65097628 51.54352719 -30.34627183 56.35574275 -28.21661377 61.23846436 C-26.95152326 64.14058011 -25.72319507 67.05784713 -24.4921875 69.97454834 C-23.80606683 71.59982152 -23.1181837 73.22435157 -22.42871094 74.84820557 C-17.98801179 85.32903758 -13.75288491 95.89330089 -9.5027771 106.45248413 C-8.15773273 109.79368911 -6.81032793 113.13393199 -5.4621582 116.47387695 C-3.77278953 120.65940865 -2.08675489 124.84625805 -0.40332031 129.03417969 C1.19051684 132.99771823 2.79621904 136.95613751 4.41113281 140.91113281 C5.15169397 142.73502553 5.89225393 144.55891873 6.6328125 146.3828125 C6.97545135 147.21497284 7.31809021 148.04713318 7.67111206 148.9045105 C7.9796109 149.6670816 8.28810974 150.42965271 8.60595703 151.21533203 C8.87667023 151.87759796 9.14738342 152.53986389 9.42630005 153.22219849 C10 155 10 155 10 158 C-28.28 158 -66.56 158 -106 158 C-129.03650442 98.1050885 -129.03650442 98.1050885 -137.25 76.5625 C-138.52668294 73.21653293 -139.80355067 69.87063642 -141.08044434 66.52474976 C-141.89554163 64.38794042 -142.71009972 62.25092531 -143.52404785 60.11367798 C-145.46804862 55.00938219 -147.41901892 49.9079766 -149.38476562 44.81201172 C-149.76010437 43.83586411 -150.13544312 42.85971649 -150.52215576 41.85398865 C-151.22944993 40.01510522 -151.93931569 38.17720815 -152.65216064 36.34046936 C-152.96256287 35.53194016 -153.27296509 34.72341095 -153.59277344 33.89038086 C-153.86587341 33.18376816 -154.13897339 32.47715546 -154.42034912 31.74913025 C-155 30 -155 30 -155 28 C-154.3325325 27.92118591 -153.665065 27.84237183 -152.97737122 27.76116943 C-145.91734306 26.92602657 -138.8586304 26.08034048 -131.80053711 25.22900391 C-129.17982095 24.913414 -126.55870976 24.60197487 -123.93725586 24.29248047 C-108.89890837 22.51514278 -94.03314825 20.47381712 -79.19515991 17.4395752 C-75.94620065 16.78897936 -72.68697338 16.22056073 -69.421875 15.65625 C-54.25662718 13.03147436 -39.33206954 10.33069325 -24.62890625 5.71484375 C-23.97336258 5.50926849 -23.31781891 5.30369324 -22.64241028 5.09188843 C-19.32553134 4.04817314 -16.01423053 2.98992457 -12.70922852 1.90917969 C-10.89249634 1.32571777 -10.89249634 1.32571777 -9.0390625 0.73046875 C-7.94803223 0.37364014 -6.85700195 0.01681152 -5.73291016 -0.35083008 C-3 -1 -3 -1 0 0 Z " fill="#1F458E" transform="translate(793,1060)"/>
<path d="M0 0 C0 3.18528419 -0.34829245 3.94807444 -1.94921875 6.5625 C-2.59310547 7.61981323 -2.59310547 7.61981323 -3.25 8.69848633 C-3.9615625 9.8377356 -3.9615625 9.8377356 -4.6875 11 C-5.17863281 11.79237061 -5.66976563 12.58474121 -6.17578125 13.40112305 C-14.19159025 26.21659909 -22.47552623 38.73863095 -32.46875 50.10546875 C-34.81212723 52.78516401 -37.03673819 55.52527664 -39.25 58.3125 C-48.26588429 69.35496359 -58.3881805 79.46942893 -68.4375 89.5625 C-69.17025146 90.29992432 -69.90300293 91.03734863 -70.65795898 91.79711914 C-74.72299162 95.85015372 -78.8850573 99.72724256 -83.23364258 103.47436523 C-85.4082856 105.35264364 -87.51425348 107.30043776 -89.625 109.25 C-94.06858778 113.26006702 -98.68608584 116.97220112 -103.41357422 120.63623047 C-107.21479129 123.58483811 -110.95650266 126.59233361 -114.66461182 129.65716553 C-120.75357546 134.67293753 -126.9303989 139.5113358 -133.3359375 144.1171875 C-134.11011017 144.67464661 -134.88428284 145.23210571 -135.68191528 145.80645752 C-144.29004072 151.97107061 -153.05824084 157.88914473 -161.875 163.75 C-162.71661682 164.31037964 -163.55823364 164.87075928 -164.425354 165.44812012 C-187.35871057 180.69812418 -210.84125011 194.76534075 -235 208 C-235.97952637 208.54124512 -236.95905273 209.08249023 -237.96826172 209.64013672 C-269.56654922 227.08605438 -301.95836451 242.88087794 -335.09472656 257.17718506 C-338.0238286 258.44215253 -340.948998 259.71616293 -343.875 260.98828125 C-357.76360317 267 -357.76360317 267 -359 267 C-359 265.35 -359 263.7 -359 262 C-386.06 262 -413.12 262 -441 262 C-438.10877705 260.55438853 -435.96584422 259.60777615 -432.94287109 258.78881836 C-432.14491119 258.56835342 -431.34695129 258.34788849 -430.52481079 258.1207428 C-429.6581076 257.88367111 -428.79140442 257.64659943 -427.8984375 257.40234375 C-415.02915682 253.79790111 -402.32507501 249.71910483 -389.625 245.5625 C-388.42878021 245.17149109 -387.23256042 244.78048218 -386.00009155 244.37762451 C-354.70076744 234.11588355 -324.08535515 222.4136427 -294 209 C-293.00645508 208.55769043 -292.01291016 208.11538086 -290.98925781 207.65966797 C-266.828842 196.8510609 -242.83058985 185.51624923 -219.75146484 172.54199219 C-216.78638049 170.88028209 -213.8100164 169.24003191 -210.83203125 167.6015625 C-197.29619446 160.12772399 -184.04604779 152.2981154 -171 144 C-170.27441895 143.54061035 -169.54883789 143.0812207 -168.80126953 142.60791016 C-145.47659117 127.81204267 -122.75662895 112.02104429 -101 95 C-99.84916533 94.10780585 -98.69811768 93.21588637 -97.546875 92.32421875 C-91.1375247 87.34319752 -84.84530107 82.25281504 -78.67700195 76.97583008 C-75.39538097 74.16892466 -72.0649684 71.44189273 -68.6875 68.75 C-62.42393642 63.65856528 -56.62017062 58.09620734 -50.765625 52.546875 C-47.95616875 49.88688736 -45.1007303 47.29652998 -42.1875 44.75 C-37.04865658 40.16362609 -32.1891398 35.29882635 -27.3125 30.4375 C-26.09953247 29.2314209 -26.09953247 29.2314209 -24.86206055 28.00097656 C-20.03576614 23.16227268 -15.42335962 18.20889771 -11 13 C-10.22160767 12.0881897 -10.22160767 12.0881897 -9.42749023 11.15795898 C-7.96770295 9.44262084 -6.51391435 7.72242533 -5.0625 6 C-4.56943359 5.41605469 -4.07636719 4.83210937 -3.56835938 4.23046875 C-2.37827054 2.82084896 -1.18903894 1.41050551 0 0 Z " fill="#D41E5D" transform="translate(1349,690)"/>
<path d="M0 0 C28.29430164 8.97347712 54.99826802 23.946576 76 45 C76.81984375 45.80824219 77.6396875 46.61648438 78.484375 47.44921875 C92.71410501 62.29229919 100.57171137 81.10655829 100.203125 101.6875 C98.93214248 136.46902165 72.55498125 166.77332514 48.41333008 189.39501953 C45.97450041 191.63414354 43.49259296 193.82102293 41 196 C40.49678223 196.44263184 39.99356445 196.88526367 39.47509766 197.34130859 C26.36957094 208.82774723 12.22210224 218.95564029 -2 229 C-2.66 228.67 -3.32 228.34 -4 228 C6.43925152 218.46266911 6.43925152 218.46266911 11.0625 214.4375 C12.37518767 213.29188167 13.68768107 212.14604071 15 211 C15.73347656 210.360625 16.46695312 209.72125 17.22265625 209.0625 C28.40940869 199.1672263 38.7554065 188.73888948 48 177 C49.47903874 175.24989188 50.95820807 173.49989411 52.4375 171.75 C68.89164312 151.48994204 82.57273154 126.88316898 80.26611328 99.96191406 C78.53214808 87.17829535 70.20313724 75.98393348 60.515625 67.89453125 C51.34909299 60.99116475 41.56118392 56.24035959 31.06640625 51.76171875 C30.36999023 51.45258545 29.67357422 51.14345215 28.95605469 50.82495117 C26.81202177 49.8851053 26.81202177 49.8851053 23.73828125 48.96875 C19.23862382 45.73361827 18.31188595 40.93805311 16.625 35.8125 C13.99604579 28.31681409 11.31798758 21.01116756 7.6875 13.9375 C7.37441895 13.32688721 7.06133789 12.71627441 6.73876953 12.0871582 C4.59818547 7.99741979 2.30673311 3.99731896 0 0 Z " fill="#D51F5D" transform="translate(1110,469)"/>
<path d="M0 0 C0.33 0 0.66 0 1 0 C1.83988712 5.28254006 2.25802782 10.48727648 2.5 15.828125 C2.54060547 16.65777771 2.58121094 17.48743042 2.62304688 18.34222412 C2.75178791 20.97801118 2.87629274 23.61397225 3 26.25 C3.6318886 40.21496001 3.6318886 40.21496001 4.74560547 54.14697266 C5.28222464 60.16514123 5.58821501 66.2022278 5.92993164 72.23413086 C6.06246585 74.56190029 6.20003059 76.88933751 6.33789062 79.21679688 C6.42478418 80.72914917 6.51138267 82.24151846 6.59765625 83.75390625 C6.63826675 84.43336807 6.67887726 85.1128299 6.72071838 85.81288147 C7.02108463 91.23430533 7 96.54406757 7 102 C-10.49 102 -27.98 102 -46 102 C-45.12059173 97.60295863 -44.05310892 94.65801788 -42.1484375 90.671875 C-41.85792511 90.05890564 -41.56741272 89.44593628 -41.26809692 88.81439209 C-40.63864611 87.48722202 -40.00679357 86.16118894 -39.37280273 84.83618164 C-37.65043182 81.23509052 -35.9469475 77.62507807 -34.2421875 74.015625 C-33.88892395 73.26861328 -33.5356604 72.52160156 -33.17169189 71.75195312 C-29.53142473 64.03871053 -26.01046538 56.2729486 -22.5 48.5 C-15.15773821 32.258914 -7.60555539 16.11921247 0 0 Z " fill="#FBFCFD" transform="translate(1312,1006)"/>
<path d="M0 0 C3.9911681 1.84207759 6.97268907 4.02614751 9 8 C9.51481937 11.39052755 9.5783229 14.61528911 9 18 C8.34 18.66 7.68 19.32 7 20 C7 20.99 7 21.98 7 23 C8.36125 23.86625 8.36125 23.86625 9.75 24.75 C14.53090689 28.05985862 16.29145955 32.38452777 18.5625 37.5625 C20.97553268 41.90206684 25.09041177 43.49440011 29.44140625 45.54296875 C32.14286298 47.08135556 33.44794337 48.32642299 35 51 C34.6875 53.25 34.6875 53.25 34 55 C34.9075 55.226875 35.815 55.45375 36.75 55.6875 C40.64687977 57.26123991 42.02427129 58.28563002 44 62 C44.27212593 66.5325975 43.40231577 70.14930177 41.46484375 74.24609375 C39.62971148 78.39702801 39.54237013 82.19906493 39.625 86.6875 C39.63370117 87.47697021 39.64240234 88.26644043 39.65136719 89.07983398 C39.86307589 97.59763853 41.53645347 105.12752177 45.25 112.8125 C47.2696454 117.00479423 47.14172196 119.52825565 46 124 C43.13372384 125.09772278 41.94901253 125.53667691 39 125 C14.8510471 106.58642341 6.40889721 62.24806785 2.49951172 34.43994141 C1.00833846 22.9469587 -0.24681133 11.60157576 0 0 Z " fill="#386AB3" transform="translate(685,604)"/>
<path d="M0 0 C0.74958984 0.00902344 1.49917969 0.01804687 2.27148438 0.02734375 C4.11862654 0.05087422 5.96560412 0.08674439 7.8125 0.125 C7.26800236 3.91972973 5.77457612 5.39531268 2.875 7.8125 C2.16472656 8.41449219 1.45445312 9.01648438 0.72265625 9.63671875 C-3.55922286 12.97290677 -8.56354415 12.65559015 -13.80273438 12.93554688 C-18.32393574 13.34013744 -19.69018668 13.53788352 -22.76171875 17.1640625 C-23.56222656 18.14117187 -24.36273437 19.11828125 -25.1875 20.125 C-28.78125 20.82421875 -28.78125 20.82421875 -32.6875 20.8125 C-37.93782719 20.69289368 -37.93782719 20.69289368 -42.63671875 22.6328125 C-46.19261863 24.7129867 -49.50963985 24.45157421 -53.5 24.3125 C-54.61084961 24.29219727 -54.61084961 24.29219727 -55.74414062 24.27148438 C-57.55891075 24.23635979 -59.37330288 24.18255972 -61.1875 24.125 C-61.1875 21.125 -61.1875 21.125 -58.65234375 18.53125 C-51.11431522 12.12184584 -45.4203635 9.02324675 -35.515625 7.66796875 C-32.46226096 7.16982602 -30.67148118 6.56210008 -28.0625 5 C-23.65406526 2.43084598 -19.0458916 2.55092987 -14.04296875 2.3984375 C-9.06533532 1.92178314 -5.42093441 -0.12309545 0 0 Z " fill="#3A6BB3" transform="translate(871.1875,382.875)"/>
<path d="M0 0 C0.33 0 0.66 0 1 0 C1.27913135 6.78084934 0.46147617 12.2906354 -1.5625 18.75 C-1.8320752 19.62253418 -2.10165039 20.49506836 -2.37939453 21.39404297 C-6.38953999 33.85701367 -12.68744049 44.68744049 -22 54 C-24 53.875 -24 53.875 -26 53 C-28.58665971 49.63734238 -28.37209556 46.09305121 -28 42 C-26.625 40.0625 -26.625 40.0625 -25 39 C-24.34 39 -23.68 39 -23 39 C-21.61566098 35.93467788 -20.73759493 32.96653251 -20.0625 29.6875 C-17.96134623 19.89840374 -14.49345279 13.97307381 -6.74609375 7.55859375 C-4.18494858 5.27247088 -2.15715403 2.66471969 0 0 Z " fill="#396BB3" transform="translate(1061,697)"/>
<path d="M0 0 C3.81864177 0.33507949 6.69971587 0.81888188 10.171875 2.51953125 C12.67457808 5.74882555 12.63193052 7.91010305 12.578125 11.8984375 C12.00137025 14.50825273 11.24022102 15.43378537 9.109375 17.01953125 C5.22161016 17.52350077 2.78319296 17.3062623 -0.828125 15.76953125 C-4.14454697 11.34763529 -3.45682697 6.3660956 -2.890625 1.01953125 C-1.890625 0.01953125 -1.890625 0.01953125 0 0 Z " fill="#386AB3" transform="translate(868.890625,418.98046875)"/>
<path d="M0 0 C4.56228926 -0.36792655 8.07242087 -0.61838609 12 2 C12.54976577 5.22005667 12.53304544 7.24560518 10.6171875 9.95703125 C6.01420211 14.84894862 6.01420211 14.84894862 2.0625 15.4375 C0 15 0 15 -1 13.5 C-2.47162059 9.82094852 -2.2516818 6.96398837 -2 3 C-1.34 2.01 -0.68 1.02 0 0 Z " fill="#3A6BB3" transform="translate(852,422)"/>
<path d="M0 0 C0.66 0.33 1.32 0.66 2 1 C-3.94326961 8.30173124 -10.18257281 13.73272382 -18 19 C-18.66 18.67 -19.32 18.34 -20 18 C-14.2013749 12.70235906 -8.39463114 7.42391477 -2.4609375 2.27734375 C-1.61953273 1.54167701 -0.79030613 0.79030613 0 0 Z " fill="#DA3A70" transform="translate(1126,679)"/>
<path d="M0 0 C0.66 0.33 1.32 0.66 2 1 C-3.28571429 7.42857143 -3.28571429 7.42857143 -6 10 C-6.66 9.67 -7.32 9.34 -8 9 C-5.36 6.03 -2.72 3.06 0 0 Z " fill="#D82E68" transform="translate(1126,679)"/>
<path d="M0 0 C1.07310858 3.27185553 0.89263102 5.42947592 0.0625 8.75 C-0.22947266 9.94882812 -0.22947266 9.94882812 -0.52734375 11.171875 C-0.68332031 11.77515625 -0.83929687 12.3784375 -1 13 C-1.99 12.34 -2.98 11.68 -4 11 C-3.52269162 9.5410574 -3.04308958 8.08286504 -2.5625 6.625 C-2.29566406 5.81289063 -2.02882813 5.00078125 -1.75390625 4.1640625 C-1 2 -1 2 0 0 Z " fill="#D4DBE9" transform="translate(1084,1006)"/>
<path d="M0 0 C0 4.07605096 -1.55272534 6.7838181 -4 10 C-6.25 10.9375 -6.25 10.9375 -8 11 C-6.63629701 8.00779732 -5.05091917 5.70973471 -2.875 3.25 C-2.33617187 2.63640625 -1.79734375 2.0228125 -1.2421875 1.390625 C-0.62730469 0.70226562 -0.62730469 0.70226562 0 0 Z " fill="#DE4D7E" transform="translate(1349,690)"/>
</svg>
